<svg width="572" height="572" viewBox="0 0 572 572" fill="none" xmlns="http://www.w3.org/2000/svg">
<path d="M551.2 426.4L483.6 358.8C481 356.2 475.8 356.2 473.2 358.8L469.733 362.266L457.6 350.133C487.933 304.2 482.733 242.666 442 202.8C396.067 156.866 321.533 156.866 275.6 202.8C229.667 248.733 240.933 254.8 240.933 286C240.933 317.2 253.067 346.666 275.6 369.2C298.133 391.733 328.467 403.866 358.8 403.866C389.133 403.866 403.867 397.8 422.933 384.8L435.067 396.933L431.6 400.4C429 403 429 408.2 431.6 410.8L499.2 478.4C506.133 485.333 514.8 488.8 525.2 488.8C535.6 488.8 544.267 485.333 551.2 478.4C558.133 471.466 561.6 462.8 561.6 452.4C561.6 442.866 558.133 433.333 551.2 426.4ZM287.733 358.8C268.667 339.733 257.4 313.733 257.4 286.866C257.4 260 267.8 234 287.733 214.066C307.667 194.133 333.667 183.733 359.667 183.733C385.667 183.733 411.667 193.266 431.6 214.066C471.467 253.933 471.467 318.933 431.6 358.8C391.733 398.666 326.733 398.666 286.867 358.8H287.733ZM435.933 375.266C437.667 373.533 440.267 371.8 442.867 369.2C444.6 367.466 447.2 364.866 448.933 362.266L459.333 372.666L447.2 384.8L436.8 374.4L435.933 375.266ZM540.8 468C533 475.8 519.133 475.8 510.467 468L448.067 405.6L451.533 402.133L462.8 390.866L477.533 376.133L539.933 438.533C544.267 442.866 546 448.066 546 453.266C546 459.333 544.267 464.533 539.933 468H540.8Z" fill="white"/>
<path d="M416.867 412.534C412.533 412.534 409.067 416 409.067 420.334V512.2C409.067 532.134 393.467 547.734 373.533 547.734H60.6665C40.7332 547.734 25.1332 532.134 25.1332 512.2V61.5337C25.1332 41.6004 40.7332 26.0004 60.6665 26.0004H131.733V53.7337H60.6665C56.3332 53.7337 52.8665 57.2004 52.8665 61.5337V512.2C52.8665 516.534 56.3332 520 60.6665 520H373.533C377.867 520 381.333 516.534 381.333 512.2V431.6C381.333 427.267 377.867 423.8 373.533 423.8C369.2 423.8 365.733 427.267 365.733 431.6V505.267H68.4665V69.3337H131.733V78.0004C131.733 88.4004 140.4 97.0671 150.8 97.0671H282.533C292.933 97.0671 301.6 88.4004 301.6 78.0004V69.3337H364.867V143.867C364.867 148.2 368.333 151.667 372.667 151.667C377 151.667 380.467 148.2 380.467 143.867V61.5337C380.467 57.2004 377 53.7337 372.667 53.7337H301.6V26.0004H372.667C392.6 26.0004 408.2 41.6004 408.2 61.5337V154.267C408.2 158.6 411.667 162.067 416 162.067C420.333 162.067 423.8 158.6 423.8 154.267V61.5337C423.8 33.8004 401.267 10.4004 372.667 10.4004H60.6665C32.9332 10.4004 9.5332 32.9337 9.5332 61.5337V512.2C9.5332 539.934 32.0665 563.334 60.6665 563.334H373.533C401.267 563.334 424.667 540.8 424.667 512.2V420.334C424.667 416 421.2 412.534 416.867 412.534ZM286.867 77.1337C286.867 79.7337 285.133 81.4671 282.533 81.4671H150.8C148.2 81.4671 146.467 79.7337 146.467 77.1337V26.0004H286.867V78.0004V77.1337Z" fill="white"/>
<path d="M180.267 123.068C180.267 118.734 176.8 115.268 172.467 115.268H95.3332C90.9999 115.268 87.5332 118.734 87.5332 123.068V200.201C87.5332 204.534 90.9999 208.001 95.3332 208.001H172.467C176.8 208.001 180.267 204.534 180.267 200.201V123.068ZM164.667 193.268H102.267V130.868H164.667V193.268Z" fill="white"/>
<path d="M120.467 180.267C122.2 182 123.933 182.867 125.667 182.867C127.4 182.867 129.133 182.867 130.867 180.267L156.867 154.267C159.467 151.667 159.467 146.467 156.867 143.867C154.267 141.267 149.067 141.267 146.467 143.867L126.533 163.8L123.067 160.334C120.467 157.734 115.267 157.734 112.667 160.334C110.067 162.934 110.067 168.134 112.667 170.734L121.333 179.4L120.467 180.267ZM338.867 144.734C338.867 140.4 335.4 136.934 331.067 136.934H204.533C200.2 136.934 196.733 140.4 196.733 144.734C196.733 149.067 200.2 152.534 204.533 152.534H331.067C335.4 152.534 338.867 149.067 338.867 144.734ZM265.2 182.867C265.2 178.534 261.733 175.067 257.4 175.067H204.533C200.2 175.067 196.733 178.534 196.733 182.867C196.733 187.2 200.2 190.667 204.533 190.667H257.4C261.733 190.667 265.2 187.2 265.2 182.867ZM180.267 260.867C180.267 256.534 176.8 253.067 172.467 253.067H95.3332C90.9999 253.067 87.5332 256.534 87.5332 260.867V338C87.5332 342.334 90.9999 345.8 95.3332 345.8H172.467C176.8 345.8 180.267 342.334 180.267 338V260.867ZM164.667 331.067H102.267V268.667H164.667V331.067Z" fill="white"/>
<path d="M120.467 318.066C122.2 319.799 123.933 320.666 125.667 320.666C127.4 320.666 130 320.666 130.867 318.066L156.867 292.066C159.467 289.466 159.467 284.266 156.867 281.666C154.267 279.066 149.067 279.066 146.467 281.666L126.533 301.599L123.067 298.132C120.467 295.532 115.267 295.532 112.667 298.132C110.067 300.732 110.067 305.932 112.667 308.532L121.333 317.199L120.467 318.066ZM204.533 290.332H214.933C219.267 290.332 222.733 286.866 222.733 282.532C222.733 278.199 219.267 274.732 214.933 274.732H204.533C200.2 274.732 196.733 278.199 196.733 282.532C196.733 286.866 200.2 290.332 204.533 290.332ZM219.267 313.732H204.533C200.2 313.732 196.733 317.199 196.733 321.532C196.733 325.866 200.2 329.332 204.533 329.332H219.267C223.6 329.332 227.067 325.866 227.067 321.532C227.067 317.199 223.6 313.732 219.267 313.732ZM172.467 391.732H95.3332C90.9999 391.732 87.5332 395.199 87.5332 399.532V476.666C87.5332 480.999 90.9999 484.466 95.3332 484.466H172.467C176.8 484.466 180.267 480.999 180.267 476.666V399.532C180.267 395.199 176.8 391.732 172.467 391.732ZM164.667 468.866H102.267V406.466H164.667V468.866ZM305.067 412.532H204.533C200.2 412.532 196.733 415.999 196.733 420.332C196.733 424.666 200.2 428.132 204.533 428.132H305.067C309.4 428.132 312.867 424.666 312.867 420.332C312.867 415.999 309.4 412.532 305.067 412.532ZM204.533 451.532C200.2 451.532 196.733 454.999 196.733 459.332C196.733 463.666 200.2 467.132 204.533 467.132H305.067C309.4 467.132 312.867 463.666 312.867 459.332C312.867 454.999 309.4 451.532 305.067 451.532H204.533Z" fill="white"/>
<path d="M405.6 241.799H366.6V204.532C366.6 200.199 363.134 196.732 358.8 196.732C354.467 196.732 351 200.199 351 204.532V241.799H312C307.667 241.799 304.2 245.266 304.2 249.599C304.2 253.932 307.667 257.399 312 257.399H351V368.332C351 372.666 354.467 376.132 358.8 376.132C363.134 376.132 366.6 372.666 366.6 368.332V257.399H405.6C409.934 257.399 413.4 253.932 413.4 249.599C413.4 245.266 409.934 241.799 405.6 241.799Z" fill="#F4C542"/>
</svg>
