<svg width="739" height="719" viewBox="0 0 739 719" fill="none" xmlns="http://www.w3.org/2000/svg">
<g clip-path="url(#clip0_3083_7681)">
<path d="M221.982 261.687C149.81 261.687 91.1016 202.995 91.1016 130.844C91.1016 58.6923 149.81 0 221.982 0C294.153 0 352.862 58.6923 352.862 130.844C352.862 202.995 294.153 261.687 221.982 261.687ZM221.982 4.5675C152.338 4.5675 95.6703 61.2197 95.6703 130.844C95.6703 200.467 152.338 257.12 221.982 257.12C291.625 257.12 348.293 200.467 348.293 130.844C348.293 61.2197 291.625 4.5675 221.982 4.5675Z" fill="#CDA310"/>
<path d="M130.88 544.705C58.7088 544.705 0 486.012 0 413.861C0 341.71 58.7088 283.018 130.88 283.018C203.052 283.018 261.761 341.71 261.761 413.861C261.761 486.012 203.052 544.705 130.88 544.705ZM130.88 287.585C61.2369 287.585 4.56878 344.237 4.56878 413.861C4.56878 483.485 61.2369 540.137 130.88 540.137C200.524 540.137 257.192 483.485 257.192 413.861C257.192 344.237 200.524 287.585 130.88 287.585Z" fill="#CDA310"/>
<path d="M608.12 544.705C535.948 544.705 477.239 486.012 477.239 413.861C477.239 341.71 535.948 283.018 608.12 283.018C680.291 283.018 739 341.71 739 413.861C739 486.012 680.291 544.705 608.12 544.705ZM608.12 287.585C538.476 287.585 481.808 344.237 481.808 413.861C481.808 483.485 538.476 540.137 608.12 540.137C677.763 540.137 734.431 483.485 734.431 413.861C734.431 344.237 677.763 287.585 608.12 287.585Z" fill="#CDA310"/>
<path d="M369.158 719C296.986 719 238.277 660.307 238.277 588.156C238.277 516.005 296.986 457.312 369.158 457.312C441.329 457.312 500.038 516.005 500.038 588.156C500.038 660.307 441.329 719 369.158 719ZM369.158 461.88C299.514 461.88 242.846 518.532 242.846 588.156C242.846 657.78 299.514 714.432 369.158 714.432C438.801 714.432 495.469 657.78 495.469 588.156C495.469 518.532 438.801 461.88 369.158 461.88Z" fill="#CDA310"/>
<path d="M517.658 261.687C445.486 261.687 386.777 202.995 386.777 130.844C386.777 58.6923 445.486 0 517.658 0C589.829 0 648.538 58.6923 648.538 130.844C648.538 202.995 589.829 261.687 517.658 261.687ZM517.658 4.5675C448.014 4.5675 391.346 61.2197 391.346 130.844C391.346 200.467 448.014 257.12 517.658 257.12C587.301 257.12 643.969 200.467 643.969 130.844C643.969 61.2197 587.301 4.5675 517.658 4.5675Z" fill="#CDA310"/>
<path opacity="0.5" d="M369.157 538.675C257.055 538.675 165.847 447.493 165.847 335.422C165.847 223.35 257.055 132.168 369.157 132.168C481.26 132.168 572.468 223.35 572.468 335.422C572.468 447.493 481.26 538.675 369.157 538.675ZM369.157 136.735C259.568 136.735 170.415 225.863 170.415 335.422C170.415 444.981 259.568 534.108 369.157 534.108C478.747 534.108 567.899 444.981 567.899 335.422C567.899 225.863 478.747 136.735 369.157 136.735Z" fill="#CDA310"/>
<path d="M407.961 319.36H380.701C378.874 319.36 377.503 320.73 377.503 322.557V394.724H361.512V322.557C361.512 320.73 360.142 319.36 358.314 319.36H331.054V303.374H358.314C360.142 303.374 361.512 302.004 361.512 300.177V276.121H377.503V300.177C377.503 302.004 378.874 303.374 380.701 303.374H407.961V319.36Z" fill="black"/>
<path d="M204.697 163.181C203.768 163.181 202.839 162.861 202.077 162.222C188.858 150.955 176.522 138.486 165.405 125.149C154.866 112.482 150.13 96.9065 152.399 82.4276C154.364 69.8974 161.506 59.1638 172.502 52.1907C182.112 46.1007 193.214 42.873 204.605 42.873H204.773C216.164 42.873 227.251 46.1007 236.876 52.1907C247.871 59.1638 255.014 69.8974 256.979 82.4276C259.248 96.9065 254.511 112.482 243.973 125.134C232.855 138.471 220.535 150.94 207.316 162.207C206.555 162.846 205.61 163.166 204.681 163.166L204.697 163.181ZM204.62 45.918C193.808 45.918 183.284 48.9783 174.147 54.7638C163.897 61.2496 157.257 71.2524 155.415 82.8995C153.267 96.5259 157.76 111.203 167.75 123.2C178.746 136.4 190.96 148.748 204.042 159.892C204.422 160.212 204.986 160.212 205.367 159.892C218.433 148.748 230.647 136.4 241.643 123.2C251.618 111.218 256.111 96.5259 253.978 82.9148C252.151 71.2676 245.496 61.2648 235.246 54.779C226.124 48.9935 215.585 45.9333 204.773 45.9333C204.742 45.9333 204.697 45.9333 204.681 45.9333H204.605L204.62 45.918ZM235.49 117.75H173.903C173.065 117.75 172.38 117.064 172.38 116.227V102.205C172.38 100.835 173.065 99.5557 174.208 98.8097L187.807 89.7508C188.218 81.3161 194.843 74.4801 203.189 73.7341V66.4566H199.58C198.742 66.4566 198.057 65.7714 198.057 64.9341C198.057 64.0967 198.742 63.4116 199.58 63.4116H203.189V59.8032C203.189 58.9659 203.874 58.2807 204.712 58.2807C205.549 58.2807 206.235 58.9659 206.235 59.8032V63.4116H209.844C210.682 63.4116 211.367 64.0967 211.367 64.9341C211.367 65.7714 210.682 66.4566 209.844 66.4566H206.235V73.7341C214.58 74.4801 221.205 81.3161 221.616 89.7508L235.216 98.8097C236.358 99.5709 237.043 100.835 237.043 102.205V116.227C237.043 117.064 236.358 117.75 235.521 117.75H235.49ZM221.616 114.705H233.967V102.205C233.967 101.855 233.8 101.535 233.51 101.337L221.616 93.42V114.705ZM206.219 114.705H218.57V90.5425C218.57 82.8995 212.342 76.6877 204.697 76.6877C197.051 76.6877 190.838 82.8995 190.823 90.5425V114.705H203.174V105.965C203.174 105.128 203.859 104.443 204.697 104.443C205.534 104.443 206.219 105.128 206.219 105.965V114.705ZM175.426 114.705H187.777V93.42L175.898 101.337C175.609 101.535 175.426 101.855 175.426 102.205V114.705ZM204.697 93.3743C203.143 93.3743 201.894 92.1107 201.894 90.5729C201.894 89.0352 203.158 87.7715 204.697 87.7715C206.235 87.7715 207.499 89.0352 207.499 90.5729C207.499 92.1107 206.235 93.3743 204.697 93.3743Z" fill="#CDA310"/>
<path d="M537.669 59.5146V46.9693H542.025C547.096 46.9693 547.111 39.3263 542.025 39.3111H537.669V34.9567C537.669 29.8868 529.994 29.8868 529.994 34.9567V39.2654H525.638C520.567 39.2502 520.552 46.9084 525.638 46.9236H529.994V59.5146C529.994 64.5846 537.669 64.5846 537.669 59.5146ZM525.653 44.3658C523.963 44.3658 523.963 41.808 525.653 41.808H531.273V41.8232C531.974 41.8232 532.552 41.2447 532.552 40.5443V34.9567C532.552 33.2668 535.111 33.2668 535.111 34.9567V40.5595C535.111 41.2599 535.674 41.8384 536.39 41.8384H542.025C543.715 41.8689 543.715 44.4115 542.025 44.4115H536.405C535.705 44.3962 535.126 44.9596 535.126 45.6599V59.4842C535.126 61.1742 532.567 61.1742 532.567 59.4842V45.6447C532.567 44.9443 532.004 44.3658 531.288 44.3658H525.653ZM476.539 148.246C476.844 148.246 502.139 143.663 510.165 140.74C514.749 139.065 518.328 136.858 520.506 133.478C522.029 131.118 527.496 120.902 529.887 116.532C535.248 106.773 528.577 102.236 523.049 107.824C521.663 109.224 519.897 111.143 518.176 113.015L517.643 113.594C517.323 112.665 517.018 111.721 516.729 110.747C513.333 99.0083 514.627 97.029 518.115 91.7612C524.13 82.6566 529.918 69.7154 526.537 64.4932C525.684 63.1839 523.872 61.6461 521.465 63.6254C519.105 65.559 509.769 81.3929 505.612 87.5591C496.809 100.607 496.398 104.916 495.834 110.869C495.499 115.299 494.647 119.669 493.291 123.886H476.539C475.838 123.886 475.26 124.464 475.26 125.165V146.967C475.26 147.667 475.838 148.246 476.539 148.246ZM477.818 126.444H494.235C494.784 126.444 495.286 126.094 495.454 125.561C497.677 118.694 498.073 114.492 498.393 111.112C498.926 105.525 499.307 101.505 507.744 88.9902C511.444 83.494 521.252 67.1271 523.11 65.6046C523.689 65.1327 523.887 65.0718 524.405 65.8939C526.826 69.624 521.785 81.5909 515.998 90.3605C512.13 96.2221 510.713 99.0844 514.292 111.462C514.795 113.213 515.389 114.903 515.968 116.456C516.211 117.126 516.942 117.461 517.612 117.217C517.795 117.141 517.978 117.035 518.115 116.882C520.43 114.385 523.034 111.508 524.892 109.62C528.775 105.707 531.151 108.996 527.679 115.299C525.364 119.501 519.821 129.839 518.389 132.077C515.922 135.898 511.064 137.68 509.312 138.319C502.642 140.755 483.377 144.394 477.834 145.414V126.428L477.818 126.444ZM592.418 146.967V125.165C592.418 124.464 591.84 123.886 591.139 123.886H574.387C573.032 119.669 572.179 115.299 571.844 110.869C571.28 104.916 570.869 100.607 562.067 87.5591C557.909 81.3929 548.573 65.559 546.213 63.6254C543.807 61.6614 541.994 63.1839 541.142 64.4932C537.761 69.7154 543.548 82.6566 549.563 91.7612C553.051 97.029 554.345 99.0083 550.949 110.747C550.675 111.721 550.355 112.665 550.035 113.594L549.502 113.015C547.782 111.158 546.015 109.224 544.629 107.824C539.101 102.236 532.415 106.773 537.791 116.532C540.197 120.887 545.665 131.118 547.172 133.478C549.35 136.842 552.929 139.065 557.513 140.74C565.539 143.663 590.85 148.246 591.139 148.246C591.84 148.246 592.418 147.667 592.418 146.967ZM589.86 145.444C584.317 144.424 565.067 140.786 558.381 138.35C556.63 137.71 551.787 135.944 549.304 132.107C547.858 129.869 542.314 119.516 540.015 115.314C536.542 109.011 538.918 105.722 542.802 109.635C544.66 111.523 547.264 114.401 549.579 116.898C550.066 117.415 550.873 117.446 551.391 116.959C551.543 116.821 551.65 116.654 551.726 116.456C552.289 114.903 552.883 113.213 553.401 111.462C556.995 99.0844 555.564 96.2069 551.695 90.3605C545.908 81.5909 540.867 69.624 543.289 65.8939C543.822 65.087 544.005 65.1327 544.583 65.6046C546.426 67.1271 556.249 83.494 559.95 88.9902C568.387 101.505 568.767 105.54 569.3 111.112C569.62 114.492 570.016 118.694 572.24 125.561C572.407 126.094 572.895 126.444 573.458 126.444H589.875V145.429L589.86 145.444Z" fill="#CDA310"/>
<path d="M96.8274 454.115H54.3378C49.9975 454.115 46.4795 450.598 46.4795 446.259V392.926C46.4795 389.211 49.1142 385.968 52.7539 385.222C53.5916 385.055 54.3835 385.588 54.551 386.41C54.7185 387.232 54.1855 388.039 53.3631 388.206C51.1396 388.663 49.5101 390.657 49.5253 392.926V446.259C49.5253 448.908 51.6879 451.07 54.3378 451.07H96.8274C97.665 451.07 98.3504 451.755 98.3504 452.593C98.3504 453.43 97.665 454.115 96.8274 454.115ZM145.089 441.326C144.251 441.326 143.566 440.641 143.566 439.804V392.926C143.566 390.657 141.952 388.663 139.728 388.206C138.906 388.039 138.373 387.232 138.54 386.41C138.708 385.588 139.515 385.055 140.337 385.222C143.977 385.968 146.612 389.211 146.612 392.926V439.804C146.612 440.641 145.927 441.326 145.089 441.326Z" fill="#CDA310"/>
<path d="M96.5379 451.573C96.3856 451.573 96.2333 451.558 96.0962 451.512C95.9744 451.467 95.8526 451.421 95.7307 451.345C95.7307 451.345 95.6698 451.299 95.6394 451.284C78.7349 439.028 54.2158 441.327 53.9721 441.357C53.5609 441.403 53.1193 441.266 52.7994 440.977C52.4796 440.688 52.2969 440.276 52.2969 439.85V376.012C52.2969 375.281 52.8147 374.641 53.5457 374.52C77.8059 370.044 92.5478 380.731 96.5379 384.172C100.528 380.731 115.255 370.044 139.515 374.52C140.231 374.657 140.764 375.281 140.764 376.012V439.85C140.764 440.276 140.581 440.688 140.261 440.977C139.941 441.266 139.53 441.403 139.088 441.357C139.088 441.357 138.86 441.327 138.464 441.312C137.626 441.251 136.987 440.52 137.048 439.683C137.078 439.195 137.337 438.784 137.718 438.526V377.291C114.554 373.484 100.65 384.599 98.0608 386.882V447.234C103.772 443.672 110.016 441.205 116.656 439.896C117.478 439.728 118.285 440.261 118.453 441.099C118.62 441.921 118.072 442.728 117.25 442.88C110.092 444.296 103.422 447.128 97.4212 451.299C97.3907 451.315 97.3603 451.345 97.3298 451.36C97.2232 451.421 97.1014 451.482 96.9795 451.512C96.8425 451.558 96.7054 451.573 96.5531 451.573H96.5379ZM59.3937 438.084C67.4652 438.084 82.527 439.287 95.015 447.173V386.867C92.426 384.568 78.5369 373.454 55.3427 377.26V438.191C56.3326 438.13 57.7185 438.084 59.4089 438.084H59.3937ZM75.1712 425.006C74.3336 425.006 73.6483 424.321 73.6483 423.483V404.452L67.2216 403.645C66.3839 403.538 65.79 402.777 65.8966 401.94C66.0032 401.103 66.7494 400.509 67.6023 400.615L73.6635 401.377V396.291C73.6635 395.454 74.3488 394.769 75.1865 394.769C76.0241 394.769 76.7094 395.454 76.7094 396.291V401.757L83.1361 402.564C83.9737 402.671 84.5677 403.432 84.4611 404.269C84.3545 405.107 83.593 405.7 82.7554 405.594L76.6942 404.833V423.483C76.6942 424.321 76.0088 425.006 75.1712 425.006Z" fill="#CDA310"/>
<path d="M133.439 485.19C133.119 485.19 132.814 485.083 132.555 484.901L118.697 474.898C118.042 474.426 117.874 473.512 118.316 472.827L120.113 470.102C118.21 468.792 116.001 468.001 113.686 467.818C113.565 467.818 113.443 467.788 113.321 467.742C100.285 463.403 96.4164 454.146 95.3656 450.386C95.3351 450.248 95.3047 450.111 95.3047 449.974C95.3047 449.137 95.99 448.391 96.8276 448.391C97.6652 448.391 98.2896 448.954 98.3505 449.746C99.3404 453.141 102.797 460.967 114.113 464.804C116.885 465.062 119.504 466.006 121.788 467.559L138.495 442.255C134.916 438.891 132.875 434.201 132.875 429.268C132.875 426.68 132.464 424.122 131.642 421.671L127.042 407.893C126.251 405.517 123.799 404.086 121.331 404.574C118.636 405.106 116.885 407.74 117.418 410.435C117.463 410.633 117.509 410.846 117.585 411.044L122.976 427.213C123.144 427.7 123.037 428.248 122.717 428.644L121.514 430.136C117.387 435.298 118.24 443.154 121.149 447.934C121.59 448.65 121.362 449.594 120.646 450.02C119.93 450.462 118.986 450.233 118.56 449.502C115.027 443.702 114.098 434.521 119.154 428.218L119.839 427.365L114.707 411.988C114.6 411.668 114.509 411.349 114.448 411.029C113.58 406.69 116.412 402.442 120.753 401.574C124.728 400.767 128.672 403.081 129.951 406.903L134.55 420.682C135.479 423.452 135.936 426.33 135.936 429.238C135.936 433.151 137.49 436.881 140.216 439.637L141.19 438.16C141.632 437.49 142.5 437.277 143.201 437.673L157.501 445.666C157.866 445.864 158.125 446.214 158.232 446.625C158.339 447.036 158.262 447.462 158.034 447.812L134.733 484.474C134.505 484.824 134.155 485.068 133.728 485.159C133.637 485.175 133.53 485.19 133.439 485.19ZM121.651 473.269L133.028 481.475L154.607 447.538L142.957 441.022L121.667 473.269H121.651Z" fill="#CDA310"/>
<path d="M420.769 667.038C420.328 667.038 419.886 666.84 419.582 666.474C415.744 661.724 410.048 658.999 403.941 658.999C397.834 658.999 392.138 661.724 388.301 666.474C388.011 666.825 387.585 667.038 387.128 667.038C386.671 667.038 386.245 666.84 385.955 666.49C381.996 661.755 376.178 659.029 370.01 658.999C363.842 659.029 358.025 661.755 354.065 666.49C353.776 666.84 353.395 667.007 352.877 667.038C352.421 667.038 351.994 666.825 351.705 666.474C347.867 661.724 342.171 658.999 336.064 658.999C329.957 658.999 324.262 661.724 320.424 666.474C319.891 667.129 318.947 667.236 318.277 666.703C317.622 666.17 317.515 665.211 318.048 664.556C322.465 659.075 329.028 655.939 336.064 655.939C342.506 655.939 348.552 658.573 352.908 663.216C357.385 658.603 363.523 655.984 369.995 655.954C376.468 655.984 382.605 658.603 387.082 663.216C391.453 658.573 397.499 655.939 403.926 655.939C410.962 655.939 417.526 659.075 421.942 664.556C422.475 665.211 422.369 666.17 421.714 666.703C421.424 666.931 421.089 667.038 420.754 667.038H420.769ZM403.743 654.127C396.92 654.127 391.377 648.585 391.377 641.764C391.377 634.943 396.92 629.402 403.743 629.402C410.566 629.402 416.109 634.943 416.109 641.764C416.109 648.585 410.566 654.127 403.743 654.127ZM403.743 632.431C398.596 632.431 394.423 636.618 394.423 641.749C394.423 646.88 398.611 651.067 403.743 651.067C408.875 651.067 413.063 646.88 413.063 641.749C413.063 636.618 408.875 632.431 403.743 632.431ZM370.376 654.127C363.553 654.127 358.01 648.585 358.01 641.764C358.01 634.943 363.553 629.402 370.376 629.402C377.199 629.402 382.742 634.943 382.742 641.764C382.742 648.585 377.199 654.127 370.376 654.127ZM370.376 632.431C365.228 632.431 361.056 636.618 361.056 641.749C361.056 646.88 365.244 651.067 370.376 651.067C375.508 651.067 379.696 646.88 379.696 641.749C379.696 636.618 375.508 632.431 370.376 632.431ZM336.262 654.127C329.44 654.127 323.896 648.585 323.896 641.764C323.896 634.943 329.44 629.402 336.262 629.402C343.085 629.402 348.628 634.943 348.628 641.764C348.628 648.585 343.085 654.127 336.262 654.127ZM336.262 632.431C331.115 632.431 326.942 636.618 326.942 641.749C326.942 646.88 331.13 651.067 336.262 651.067C341.395 651.067 345.583 646.88 345.583 641.749C345.583 636.618 341.395 632.431 336.262 632.431ZM344.593 620.891C344.273 620.891 343.953 620.799 343.679 620.586C343.009 620.084 342.872 619.125 343.374 618.455L350.304 609.228C350.806 608.559 351.766 608.422 352.436 608.924C353.106 609.426 353.243 610.386 352.74 611.055L345.811 620.282C345.506 620.678 345.05 620.891 344.593 620.891ZM395.382 620.891C394.925 620.891 394.469 620.678 394.164 620.282L387.235 611.055C386.732 610.386 386.869 609.426 387.539 608.924C388.209 608.422 389.169 608.559 389.671 609.228L396.601 618.455C397.103 619.125 396.966 620.084 396.296 620.586C396.022 620.799 395.702 620.891 395.382 620.891ZM369.98 620.891C369.142 620.891 368.457 620.206 368.457 619.368V610.142C368.457 609.305 369.142 608.619 369.98 608.619C370.817 608.619 371.503 609.305 371.503 610.142V619.368C371.503 620.206 370.817 620.891 369.98 620.891ZM390.753 602.438H349.207C348.735 602.438 348.293 602.225 348.004 601.844C347.715 601.479 347.623 600.992 347.73 600.535C350.319 590.365 359.472 583.255 369.98 583.255C380.488 583.255 389.626 590.365 392.23 600.535C392.352 600.992 392.245 601.479 391.956 601.844C391.666 602.21 391.225 602.438 390.753 602.438ZM351.278 599.393H388.697C385.864 591.598 378.432 586.3 369.98 586.3C361.528 586.3 354.111 591.598 351.263 599.393H351.278ZM369.98 581.671C363.416 581.671 358.071 576.327 358.071 569.765C358.071 563.203 363.416 557.859 369.98 557.859C376.544 557.859 381.889 563.203 381.889 569.765C381.889 576.327 376.544 581.671 369.98 581.671ZM369.98 560.904C365.091 560.904 361.116 564.878 361.116 569.765C361.116 574.653 365.091 578.626 369.98 578.626C374.868 578.626 378.843 574.653 378.843 569.765C378.843 564.878 374.868 560.904 369.98 560.904Z" fill="#CDA310"/>
<path d="M629.761 361.594C631.421 361.091 639.629 368.217 641.107 369.754C651.478 380.534 654.219 390.552 651.584 405.289C650.655 410.542 646.604 420.545 648.965 425.173C650.518 428.218 653.64 427.487 655.072 424.716C657.28 420.469 655.696 415.916 662.047 423.027C676.271 438.921 665.946 461.957 647.472 468.564C624.827 476.664 603.079 466.844 597.444 442.986C593.028 424.305 601.267 410.405 613.298 397.068C621.004 388.542 631.984 381.097 630.324 367.76C630.157 366.359 627.933 362.127 629.746 361.578L629.761 361.594ZM633.126 367.029V374.535C633.126 383.167 618.72 395.287 613.313 401.62C607.069 408.913 600.109 418.824 599.409 428.69C598.389 443.23 604.252 459.094 618.095 465.352C611.394 456.765 608.44 445.042 611.486 434.4C613.998 425.615 624.202 411.973 631.786 406.903C638.761 402.244 636.035 408.715 635.852 412.78C635.182 427.305 640.665 430.472 646.559 441.677C650.777 449.701 652.315 458.181 646.315 465.809C652.757 463.586 658.422 459.292 661.879 453.37C667.773 443.245 666.905 432.512 658.833 423.94L656.062 428.447C651.645 432.405 646.163 428.979 645.447 423.666C644.427 416.13 648.934 406.949 649.498 399.123C650.503 385.101 643.817 375.205 633.111 367.029H633.126ZM633.126 420.971C632.791 417.865 633.126 413.754 633.126 410.496C633.126 410.314 633.264 409.537 632.898 409.811C616.74 423.301 605.485 442.971 619.725 462.581C623.014 467.118 624.903 468.306 630.842 468.077C630.4 467.331 629.289 467.392 628.344 466.722C624.37 463.906 622.755 457.024 623.167 452.441C623.365 450.234 626.273 440.307 628.801 440.307C629.837 440.307 636.127 447.265 636.964 448.559C640.437 453.872 641.792 462.459 636.355 466.981C635.609 467.605 634.589 467.346 634.512 468.077C640.97 469.082 646.345 462.688 647.137 456.811C648.95 443.413 634.528 434.019 633.142 420.971H633.126ZM628.573 444.418C626.578 449.488 625.207 454.36 627.111 459.749C628.954 464.956 633.812 468.473 636.325 461.5C638.198 456.308 636.005 451.863 632.654 447.843C632.137 447.219 629.167 443.976 628.573 444.418Z" fill="#CDA310"/>
<path d="M662.595 395.819C667.286 394.845 669.342 398.453 670.682 398.453C671.443 398.453 673.073 396.824 674.108 396.398C680.17 393.992 684.099 399.138 683.094 404.939C682.53 408.197 678.357 413.282 675.921 415.52C674.626 416.708 671.078 419.707 669.433 419.296C667.027 418.702 659.29 409.689 658.392 407.071C657.067 403.188 657.905 396.778 662.58 395.804L662.595 395.819ZM663.509 398.514C660.402 399.169 660.402 403.66 661.27 406.035C662.184 408.517 667.133 414.318 669.311 415.779C670.56 416.617 674.261 413.161 675.266 412.11C678.022 409.217 681.099 404.893 679.819 400.691C678.22 395.469 671.824 402.122 670.301 401.985C668.55 401.833 666.692 397.844 663.509 398.514Z" fill="#CDA310"/>
<path d="M633.4 479.511C633.857 479.359 634.588 479.389 634.984 479.663C635.319 479.907 636.385 486.941 636.355 487.9C636.279 490.458 633.812 490.29 633.248 486.865C633.035 485.601 632.136 479.937 633.4 479.511Z" fill="#CDA310"/>
<path d="M617.014 477.227C618.004 477.333 618.628 478.216 618.491 479.13C618.415 479.678 616.115 485.448 615.765 486.011C614.668 487.686 613.054 487.747 613.069 485.631C613.069 484.519 616.009 477.409 617.029 477.227H617.014Z" fill="#CDA310"/>
<path d="M604.343 471.198C602.607 471.609 597.246 478.734 596.287 475.05C596.013 473.969 601.648 469.188 602.607 468.762C603.567 468.335 604.998 470.056 604.343 471.198Z" fill="#CDA310"/>
<path d="M589.053 458.896C586.114 455.988 596.668 454.907 597.14 456.505C597.901 459.048 589.678 459.52 589.053 458.896Z" fill="#CDA310"/>
<path d="M649.787 476.329C651.538 475.75 655.696 481.338 654.082 482.465C652.209 483.774 647.396 477.105 649.787 476.329Z" fill="#CDA310"/>
</g>
<defs>
<clipPath id="clip0_3083_7681">
<rect width="739" height="719" fill="white"/>
</clipPath>
</defs>
</svg>
